<svg width="246" height="53" viewBox="0 0 246 53" fill="none" xmlns="http://www.w3.org/2000/svg">
<path d="M187.1 50.36C185.804 50.36 184.616 50.036 183.536 49.388C182.48 48.716 181.628 47.84 180.98 46.76C180.332 45.656 180.008 44.444 180.008 43.124L180.044 31.712C180.044 30.392 180.356 29.192 180.98 28.112C181.628 27.032 182.492 26.168 183.572 25.52C184.652 24.872 185.828 24.548 187.1 24.548C188.396 24.548 189.572 24.872 190.628 25.52C191.684 26.168 192.524 27.032 193.148 28.112C193.796 29.192 194.12 30.392 194.12 31.712L194.156 43.124C194.156 44.444 193.832 45.656 193.184 46.76C192.56 47.84 191.708 48.716 190.628 49.388C189.572 50.036 188.396 50.36 187.1 50.36ZM187.1 46.004C187.82 46.004 188.444 45.716 188.972 45.14C189.524 44.54 189.8 43.868 189.8 43.124L189.764 31.712C189.764 30.92 189.512 30.248 189.008 29.696C188.504 29.144 187.868 28.868 187.1 28.868C186.356 28.868 185.72 29.144 185.192 29.696C184.664 30.224 184.4 30.896 184.4 31.712V43.124C184.4 43.916 184.664 44.6 185.192 45.176C185.72 45.728 186.356 46.004 187.1 46.004ZM197.397 50C197.301 50 197.253 49.94 197.253 49.82L197.325 25.088C197.325 24.992 197.373 24.944 197.469 24.944H204.741C206.037 24.944 207.225 25.268 208.305 25.916C209.409 26.54 210.285 27.392 210.933 28.472C211.581 29.528 211.905 30.728 211.905 32.072C211.905 32.96 211.773 33.764 211.509 34.484C211.245 35.18 210.933 35.78 210.573 36.284C210.213 36.764 209.889 37.124 209.601 37.364C210.897 38.804 211.545 40.496 211.545 42.44L211.581 49.82C211.581 49.94 211.521 50 211.401 50H207.333C207.237 50 207.189 49.964 207.189 49.892V42.44C207.189 41.576 206.877 40.832 206.253 40.208C205.653 39.56 204.909 39.236 204.021 39.236H201.645L201.609 49.82C201.609 49.94 201.561 50 201.465 50H197.397ZM201.645 34.916H204.741C205.485 34.916 206.145 34.64 206.721 34.088C207.297 33.536 207.585 32.864 207.585 32.072C207.585 31.304 207.297 30.644 206.721 30.092C206.169 29.54 205.509 29.264 204.741 29.264H201.645V34.916ZM215.124 50C215.028 50 214.98 49.94 214.98 49.82L215.016 25.124C215.016 25.004 215.076 24.944 215.196 24.944H219.192C219.312 24.944 219.372 25.004 219.372 25.124L219.336 45.572H226.752C226.872 45.572 226.932 45.632 226.932 45.752V49.82C226.932 49.94 226.872 50 226.752 50H215.124ZM229.829 50C229.709 50 229.649 49.94 229.649 49.82L229.721 25.088C229.721 24.992 229.769 24.944 229.865 24.944L236.597 24.908C237.917 24.884 239.117 25.196 240.197 25.844C241.301 26.492 242.177 27.368 242.825 28.472C243.473 29.552 243.797 30.752 243.797 32.072V42.404C243.797 43.796 243.461 45.068 242.789 46.22C242.117 47.348 241.217 48.248 240.089 48.92C238.961 49.592 237.689 49.94 236.273 49.964L229.829 50ZM234.041 45.572H236.273C237.161 45.572 237.905 45.26 238.505 44.636C239.129 44.012 239.441 43.268 239.441 42.404V32.036C239.441 31.268 239.153 30.608 238.577 30.056C238.025 29.48 237.365 29.204 236.597 29.228L234.077 29.264L234.041 45.572Z" fill="#EFBA6F"/>
<path d="M163.541 28.7226L169.119 22.4753C169.739 21.7801 170.532 21.3056 171.395 21.1117C172.258 20.9178 173.154 21.0132 173.969 21.3859C174.784 21.7585 175.482 22.3917 175.974 23.2054C176.466 24.0191 176.73 24.9767 176.733 25.9572L176.742 28.6818L174.227 42.9297C173.891 44.8342 172.972 46.5498 171.628 47.7847C170.283 49.0197 168.595 49.6976 166.851 49.7032L149.044 49.7583C147.3 49.7635 145.608 49.096 144.256 47.8694C142.904 46.6428 141.975 44.9329 141.627 43.0306L139.024 28.7985L139.015 26.076C139.012 25.0955 139.271 24.1363 139.758 23.3196C140.245 22.5029 140.938 21.8654 141.751 21.4877C142.564 21.11 143.459 21.009 144.324 21.1976C145.188 21.3861 145.983 21.8558 146.608 22.5471L152.225 28.7576L163.541 28.7226Z" stroke="#EFBA6F" stroke-width="3" stroke-linecap="round" stroke-linejoin="round"/>
<path d="M163.605 49.7132L161.707 45.5209L154.163 45.5443L152.29 49.7482" stroke="#EFBA6F" stroke-width="3" stroke-linecap="round" stroke-linejoin="round"/>
<path d="M16.056 51.72C13.464 51.72 11.112 51.072 9 49.776C6.888 48.48 5.184 46.752 3.888 44.592C2.64 42.384 2.016 39.936 2.016 37.248V14.424C2.016 11.832 2.64 9.456 3.888 7.296C5.184 5.088 6.888 3.336 9 2.04C11.16 0.743999 13.512 0.0959988 16.056 0.0959988C18.696 0.0959988 21.072 0.743999 23.184 2.04C25.344 3.288 27.048 4.992 28.296 7.152C29.544 9.312 30.168 11.736 30.168 14.424V17.736C30.168 17.928 30.048 18.024 29.808 18.024H21.744C21.552 18.024 21.456 17.928 21.456 17.736V15C21.456 13.176 20.928 11.664 19.872 10.464C18.864 9.264 17.592 8.664 16.056 8.664C14.664 8.664 13.416 9.24 12.312 10.392C11.256 11.544 10.728 12.888 10.728 14.424V37.248C10.728 38.832 11.256 40.2 12.312 41.352C13.368 42.456 14.616 43.008 16.056 43.008C17.592 43.008 18.864 42.456 19.872 41.352C20.928 40.248 21.456 38.88 21.456 37.248V33.72H16.416C16.176 33.72 16.056 33.6 16.056 33.36V25.296C16.056 25.056 16.176 24.936 16.416 24.936H29.88C30.072 24.936 30.168 25.056 30.168 25.296V37.248C30.168 39.936 29.52 42.384 28.224 44.592C26.976 46.752 25.296 48.48 23.184 49.776C21.072 51.072 18.696 51.72 16.056 51.72ZM31.2204 50.64L40.1484 1.176C40.1964 0.983997 40.3164 0.887997 40.5084 0.887997H50.9484C51.1404 0.887997 51.2604 0.983997 51.3084 1.176L59.8764 50.64C59.9244 50.88 59.8284 51 59.5884 51H51.5964C51.4044 51 51.2844 50.88 51.2364 50.64L50.4444 45.384H40.6524L39.8604 50.64C39.8124 50.88 39.6924 51 39.5004 51H31.5084C31.3164 51 31.2204 50.88 31.2204 50.64ZM42.0924 37.68H49.0044L46.0524 17.448L45.6204 14.784L45.3324 17.448L42.0924 37.68ZM64.323 51C64.131 51 64.035 50.88 64.035 50.64L64.179 1.176C64.179 0.983997 64.275 0.887997 64.467 0.887997H73.251C73.443 0.887997 73.611 0.983997 73.755 1.176L80.307 10.68L86.859 1.176C87.003 0.983997 87.171 0.887997 87.363 0.887997H96.219C96.411 0.887997 96.507 0.983997 96.507 1.176L96.651 50.64C96.651 50.88 96.555 51 96.363 51H88.227C88.035 51 87.939 50.88 87.939 50.64L87.867 13.92L80.307 24.864L72.819 13.92L72.747 50.64C72.747 50.88 72.651 51 72.459 51H64.323ZM102.635 51C102.443 51 102.347 50.88 102.347 50.64L102.419 1.176C102.419 0.983997 102.515 0.887997 102.707 0.887997H125.819C126.011 0.887997 126.107 1.008 126.107 1.248V9.312C126.107 9.504 126.011 9.6 125.819 9.6H111.059V20.832H125.819C126.011 20.832 126.107 20.928 126.107 21.12L126.179 29.256C126.179 29.448 126.083 29.544 125.891 29.544H111.059V42.144H125.891C126.083 42.144 126.179 42.264 126.179 42.504V50.712C126.179 50.904 126.083 51 125.891 51H102.635Z" fill="#ECE6DF"/>
</svg>
